<?xml version="1.0" standalone="no"?>
<!DOCTYPE svg PUBLIC "-//W3C//DTD SVG 20010904//EN"
 "http://www.w3.org/TR/2001/REC-SVG-20010904/DTD/svg10.dtd">
<svg version="1.0" xmlns="http://www.w3.org/2000/svg"
 width="260.000000pt" height="260.000000pt" viewBox="0 0 260.000000 260.000000"
 preserveAspectRatio="xMidYMid meet">
<metadata>
Created by potrace 1.14, written by Peter Selinger 2001-2017
</metadata>
<g transform="translate(0.000000,260.000000) scale(0.100000,-0.100000)"
fill="#000000" stroke="none">
<path d="M1745 1942 c-78 -24 -119 -46 -178 -96 -67 -58 -124 -150 -159 -258
-29 -88 -30 -102 -31 -263 -1 -160 1 -176 28 -265 61 -201 198 -336 375 -370
282 -54 513 87 596 362 49 163 43 413 -13 569 -52 145 -159 261 -285 308 -87
32 -248 38 -333 13z m258 -197 c40 -17 109 -89 129 -135 44 -99 61 -242 47
-390 -22 -231 -122 -350 -294 -350 -35 0 -67 5 -70 10 -3 6 -14 10 -25 10 -10
0 -40 20 -68 45 -52 47 -85 109 -108 205 -17 72 -17 289 0 362 35 144 113 238
215 259 46 10 133 1 174 -16z"/>
<path d="M187 1933 c-4 -3 -7 -282 -7 -619 0 -549 2 -612 16 -618 25 -10 177
-7 194 4 13 8 15 52 18 275 l3 265 267 -2 267 -3 5 -270 5 -270 105 0 105 0 0
620 0 620 -107 3 -108 3 -2 -253 -3 -253 -267 -3 -268 -2 0 239 c0 132 -3 246
-6 255 -5 13 -24 16 -108 16 -57 0 -106 -3 -109 -7z"/>
</g>
</svg>
